<?xml version="1.0" encoding="UTF-8" standalone="no"?>
<svg
   xmlns:dc="http://purl.org/dc/elements/1.1/"
   xmlns:cc="http://creativecommons.org/ns#"
   xmlns:rdf="http://www.w3.org/1999/02/22-rdf-syntax-ns#"
   xmlns:svg="http://www.w3.org/2000/svg"
   xmlns="http://www.w3.org/2000/svg"
   xmlns:sodipodi="http://sodipodi.sourceforge.net/DTD/sodipodi-0.dtd"
   xmlns:inkscape="http://www.inkscape.org/namespaces/inkscape"
   id="svg2"
   xml:space="preserve"
   viewBox="0 0 128.25252 184.10745"
   version="1.1"
   sodipodi:docname="ant.svg"
   width="128.25252"
   height="184.10745"
   inkscape:version="0.92.4 (5da689c313, 2019-01-14)"><sodipodi:namedview
   pagecolor="#ffffff"
   bordercolor="#666666"
   borderopacity="1"
   objecttolerance="10"
   gridtolerance="10"
   guidetolerance="10"
   inkscape:pageopacity="0"
   inkscape:pageshadow="2"
   inkscape:window-width="1920"
   inkscape:window-height="1017"
   id="namedview13"
   showgrid="false"
   fit-margin-top="0"
   fit-margin-left="0"
   fit-margin-right="0"
   fit-margin-bottom="0"
   inkscape:zoom="2.6970053"
   inkscape:cx="73.917832"
   inkscape:cy="100.73144"
   inkscape:window-x="-8"
   inkscape:window-y="-8"
   inkscape:window-maximized="1"
   inkscape:current-layer="g14" />
  <defs
   id="defs6">
    <clipPath
   id="clipPath18">
      <path
   id="path20"
   d="M 0.06,0.06 H 158.79 V 197.54 H 0.06 Z"
   inkscape:connector-curvature="0" />
    </clipPath>
  
        
        
      </defs>
  <g
   id="g10"
   transform="matrix(1.25,0,0,-1.25,0,184.10746)">
    <g
   id="g14">
      <path
   style="fill:#231f20;fill-rule:evenodd"
   inkscape:connector-curvature="0"
   d="m 70.922012,119.34 c -4.519,-1.667 -13.367,0.054 -15.840002,-3.06 0.581,-1.843 2.418002,-3.599 3.420002,-5.94 0.88,-2.055 2.366,-4.637 2.52,-6.66001 0.074,-0.973 -0.512,-2.254 -0.72,-3.42 -0.611,-3.421996 -1.256,-6.264988 -4.680002,-6.839988 -1.686,-0.283 -3.491,0.834002 -5.58,-0.18 1.25,-1.636002 3.633,-2.799002 4.32,-5.220002 0.679,-2.396 -0.303,-4.837 -0.9,-7.2 2.523,0.663 4.064002,3.85 6.300002,5.4 0.782,1.472 1.491,2.792 2.7,4.32 0.9,1.139 2.82,2.448002 3.24,3.780004 0.962,3.05299 -0.119,10.045986 0.36,13.319996 0.111,0.759 0.489,1.934 1.44,2.16 1.096,-1.251 -0.914,-2.421 -0.72,-3.96 1.602,0.285 2.064,2.219 2.7,3.42 0.685,1.293 1.56,2.368 2.34,3.6 0.523,0.827 0.718,1.901 1.26,2.7 1.143,1.686 2.764,2.816 3.6,5.04 0.704,0.284 0.372,-0.467 0.72,-0.54 0.475996,0.304 -0.16,1.719 0.539996,1.8 0.48,0.498 2.072,-0.897 2.88,-1.26 -2.453,-1.564 -3.958996,-3.863 -5.759996,-6.48 -1.109,-1.61 -1.655,-2.997 -2.88,-4.86 -0.898,-1.365 -2.325,-2.447 -2.88,-3.6 -1.887,-3.92201 -0.57,-8.702006 -2.16,-13.5 -0.875,-2.638 -3.958,-6.591 -5.94,-8.46 -2.856,-2.692 -6.124002,-4.695 -8.640002,-7.56 0.042,-2.958 0.349,-5.651 1.26,-7.74 4.412002,-1.799 7.683002,2.603 12.420002,1.62 2.357,1.722 9.058,2.381 11.519996,0.72 3.304,-5.995 5.968,-12.632 7.38,-20.52 2.378,-2.062 5.34,-3.54 7.56,-5.76 0.238,-0.301 0.477,-0.603 0.36,-1.26 4.676,-1.804 7.472002,-5.488 9.540002,-9.9 -0.958,-0.176 -1.63,0.695 -2.700002,-0.18 0.128002,0.805 -0.966,1.576 -0.54,3.24 -2.4,1.32 -4.634,2.805 -5.94,5.22 -3.689,0.978 -5.728,3.571 -8.1,5.94 -0.541,0.54 -1.33,0.83 -1.62,1.62 -0.132,0.37 -1.187,-0.992 -1.44,0 -2.36,6.581 -3.371,14.509 -6.299996,20.52 -0.731,-1.618 -2.299,-0.928 -3.96,-1.26 -2.026,-0.404 -3.815,-2.089 -5.58,-2.34 -2.066,-0.294 -4.054,0.552 -5.94,0.18 -1.903,-0.375 -2.744,-1.891 -4.680002,-1.98 -0.05,-0.874 0.488,-1.67 -0.18,-2.16 -2.752,0.309 -2.646,3.474 -5.4,3.78 -0.131,-2.71 2.816,-2.344 2.7,-5.04 0.527,-0.253 1.076,-0.484 1.98,-0.36 7.269002,-4.611 17.436002,-6.323 23.219998,-12.42 0.249,-3.033 1.216,-5.747 1.44,-8.82 0.341,-4.691 -0.93,-10.268 0.18,-14.22 0.399,-1.422 2.125,-4.688 3.06,-6.3 0.385,-0.664 1.078,-1.156 1.44,-1.8 0.926,-1.651 0.797,-3.404 1.8,-4.68 1.458,-1.854 2.537,-5.5049997 3.06,-8.2799995 -0.811,-0.69 -1.401,-1.6 -2.7,-1.8000005 -0.48,1.0730005 0.573,1.3380005 0.54,2.5200003 -0.051,1.797 -3.228,6.9979997 -4.32,8.9999997 -1.682,3.082 -3.29,6.116 -4.14,9 -0.305,1.036 -1.697996,2.026 -2.159996,3.06 -0.928,2.077 -0.049,4.856 0.18,6.66 0.268,2.109 0.159,4.94 0,7.2 -0.145,2.059 0.477,5.011 0.18,6.12 -0.61,2.279 -7.094,3.682 -9.54,4.5 -4.202,1.405 -8.207,2.746 -10.260002,6.3 -1.313,-1.047 -2.797,0.098 -4.68,0 -0.468,-1.734 1.32,-2.59 1.62,-4.14 6.204002,-1.18 9.685002,-3.91 11.520002,-9.72 1.777,-5.628 1.592,-14.357 -0.72,-19.8 -0.687,-1.618 -1.912,-3.409 -2.88,-5.04 -2.739,-4.61 -6.658002,-9.7789997 -10.800002,-12.5999997 -3.079,0.281 -4.55,2.17 -7.02,3.06 C 41.07501,11.802 37.59901,14.131 35.462,19.26 c -1,2.4 -2.603,5.205 -3.06,7.38 -1.777,8.444 -0.601,17.68 3.78,22.68 2.60501,0.815 4.43101,2.409 7.56001,2.7 -0.373,2.172 0.814,2.786 0.72,4.68 -2.318,0.411 -4.203,-1.287 -5.76,-2.52 C 37.082,52.898 35.488,51.518 33.842,50.4 c -3.484,-2.366 -7.477,-3.777 -10.98,-6.3 -0.232,-4.99 0.145,-9.279 0.9,-13.5 0.587,-3.283 2.428,-6.046 0.72,-9.36 -0.826,-1.602 -2.603,-2.952 -3.78,-4.68 -1.144,-1.678 -2.369,-3.646 -3.24,-5.22 C 15.486,7.7740003 16.591,1.725 12.06,0 c -0.509,0.896 0.466,1.385 0.72,2.16 1.408,4.3070003 1.789,10.093 5.4,12.42 0.034,0.754 -0.884,0.556 -0.72,1.44 1.142,2.645 4.331,3.907 4.68,7.2 0.23,2.168 -1.308,5.464 -1.62,8.82 -0.405,4.346 -0.93,10.924 1.26,13.86 2.941,3.501 6.462,6.03 10.8,8.64 2.033,1.224 4.459,2.099 6.30001,3.42 1.451,1.041 2.514,2.542 4.86,2.88 0.075,1.065 0.645,1.635 0.72,2.7 0.553,0.647 1.705,0.695 1.98,1.62 -2.486,0.755 -3.302,-3.141 -5.76,-3.6 -0.536,1.018 0.181,2.173 0.54,2.88 -0.797,0.197 -0.895,-0.305 -1.44,-0.36 -1.437,2.369 -4.04301,0.714 -7.02001,0.9 -4.113,0.257 -8.31,4.098 -10.8,0.36 0.063,-3.44 -2.124,-5.548 -2.88,-8.1 C 18.275,54.526 19.074,50.559 17.28,48.6 12.874,45.266 9.306,41.094 4.5,38.16 3.78,36.448 2.243,34.906 0,35.28 c 2.706,3.234 6.248,5.632 8.46,9.36 0.959,0.253 2.099,0.772 3.06,1.44 1.421,0.988 3.617,2.779 3.96,3.96 0.788,2.718 -0.247,6.008 0.36,8.82 0.556,2.576 2.629,9.809 4.86,10.8 6.34,2.817 14.623,-2.377 21.78001,-1.44 0.518,3.386 1.324,7.511 -0.72,9.72 C 35.274,79.447 31.881,83.969 29.34,90 c -0.498,1.18 -1.333,2.126 -1.8,3.240002 -1.606,3.829992 -1.724,8.329988 -1.98,13.319998 -1.258,2.909 -4.948,4.047 -7.2,6.3 -1.131,1.131 -1.904,2.824 -3.24,3.96 -1.58,1.343 -3.976,2.117 -3.96,5.04 2.163,1.347 2.433,-1.177 3.6,-2.52 0.486,-0.56 1.532,-1.442 2.34,-2.16 0.796,-0.708 1.59,-1.565 2.34,-2.16 0.687,-0.546 1.916,-0.698 2.34,-1.62 0.304,-0.662 1.53,-1.151 2.52,-1.98 1.185,-0.993 1.674,-2.597 3.06,-2.88 1.079,1.111 -1.612,2.881 -0.54,3.96 0.751,-0.571 1.865,-1.923 1.98,-3.06 0.098,-0.973 -0.616,-1.837 -0.72,-2.88 -0.429,-4.31201 1.958,-9.510006 1.62,-14.039998 C 34.227,89.307 36.652,83.992 40.68001,80.28 c 0.102,2.717 -0.271,6.824 0.72,9.18 0.889,1.691 3.441,1.719 4.32,3.420002 -5.105,-0.826002 -9.81301,0.586 -10.62001,5.039992 -0.156,0.859 0.21,1.871 0.18,2.879996 -0.052,1.674 -0.641,3.008 -0.18,4.86001 0.929,3.731 3.19301,7.623 5.04001,9.36 -4.11901,4.334 -16.58701,-0.83 -18.36001,5.4 -0.555,6.117 -2.733,10.699 -5.04,15.12 -1.334,2.555 -3.405,5.112 -3.42,8.28 1.796,0.459 2.948,-1.243 3.6,-2.34 2.187,-3.676 3.827,-9.772 5.58,-14.76 0.859,-2.444 1.607,-3.892 1.62,-6.84 5.833,0.308 13.17401,-0.655 17.46001,-3.06 0.827,1.333 0.994,3.326 1.98,4.5 2.202,1.809 4.197,3.553 6.84,0.9 0.758,-0.762 1.364,-2.3 1.44,-3.24 1.742,-0.615 3.81,0.05 6.480002,0.72 1.824,0.458 3.621,0.616 5.22,0.9 1.868,0.332 3.563,0.943 5.94,0.72 0.688,4.185 1.525,10.142 3.96,14.04 0.288,2.832 1.063,5.177 2.7,6.66 0.153,2.426 1.705996,3.454 2.699996,5.04 1.02,0.692 1.843,-0.307 1.8,-1.62 -0.03,-0.917 -1.427,-2.568 -2.16,-3.78 -3.621996,-5.985 -6.646996,-13.61 -7.559996,-22.32"
   id="path24" />
    </g>
  </g>
<metadata
   id="metadata10"><rdf:RDF><cc:Work><dc:format>image/svg+xml</dc:format><dc:type
         rdf:resource="http://purl.org/dc/dcmitype/StillImage" /><cc:license
         rdf:resource="http://creativecommons.org/publicdomain/zero/1.0/" /><dc:publisher><cc:Agent
           rdf:about="http://openclipart.org/"><dc:title>Openclipart</dc:title></cc:Agent></dc:publisher><dc:title>Acrobat ant</dc:title><dc:date>2012-06-05T14:11:49</dc:date><dc:description>clip art, clipart, </dc:description><dc:source>http://openclipart.org/detail/170428/acrobat-ant-by-jerome02-170428</dc:source><dc:creator><cc:Agent><dc:title>jerome02</dc:title></cc:Agent></dc:creator><dc:subject><rdf:Bag><rdf:li>clip art</rdf:li><rdf:li>clipart</rdf:li></rdf:Bag></dc:subject></cc:Work><cc:License
       rdf:about="http://creativecommons.org/publicdomain/zero/1.0/"><cc:permits
         rdf:resource="http://creativecommons.org/ns#Reproduction" /><cc:permits
         rdf:resource="http://creativecommons.org/ns#Distribution" /><cc:permits
         rdf:resource="http://creativecommons.org/ns#DerivativeWorks" /></cc:License></rdf:RDF></metadata></svg>